<?xml version="1.0" encoding="UTF-8"?>
<svg version="1.1" xmlns="http://www.w3.org/2000/svg" width="512" height="512" viewBox="0 0 512 512">
	<defs>
		<linearGradient id="lensGradient" x1="0%" y1="0%" x2="100%" y2="100%">
			<stop offset="0%" stop-color="#38bdf8" />
			<stop offset="40%" stop-color="#818cf8" />
			<stop offset="70%" stop-color="#c084fc" />
			<stop offset="100%" stop-color="#f472b6" />
		</linearGradient>
	</defs>
	<path d="M0 0 C1.26662476 0.31179199 1.26662476 0.31179199 2.55883789 0.62988281 C7.20493248 1.83693286 11.73527174 3.1929868 16.24316406 4.8425293 C30.42102701 9.91448768 43.24183123 11.36602721 58.25 11.1875 C59.9121051 11.18245453 59.9121051 11.18245453 61.60778809 11.17730713 C79.93950983 11.0665027 95.54307277 8.1449541 112.71310425 2.04971313 C124.56810062 -2.08711329 137.13619904 -3.93280647 149.5 -5.875 C150.60811035 -6.05144043 151.7162207 -6.22788086 152.85791016 -6.40966797 C195.61778172 -12.88105096 239.49344047 -9.12558542 281.5 0.125 C282.50417969 0.34446289 283.50835937 0.56392578 284.54296875 0.79003906 C287.10150142 1.36652086 289.64507922 1.98159883 292.1875 2.625 C292.89350342 2.78983887 293.59950684 2.95467773 294.3269043 3.12451172 C297.78241254 4.07417695 299.39274359 4.99313033 301.67138672 7.79467773 C303.71588009 11.51816693 304.00287216 13.66597743 303.99609375 17.87890625 C303.99673828 19.14541016 303.99738281 20.41191406 303.99804688 21.71679688 C303.97806641 23.02712891 303.95808594 24.33746094 303.9375 25.6875 C303.94458984 27.00169922 303.95167969 28.31589844 303.95898438 29.66992188 C303.8867828 40.57235966 303.8867828 40.57235966 300.5 45.125 C298.2734375 46.41796875 298.2734375 46.41796875 295.875 47.3125 C292.47661326 48.40406662 292.47661326 48.40406662 290.5 51.125 C290.32317451 53.09280715 290.20127531 55.0656509 290.10546875 57.0390625 C290.03948486 58.26326904 289.97350098 59.48747559 289.90551758 60.7487793 C289.87068268 61.40099457 289.83584778 62.05320984 289.79995728 62.72518921 C288.33310107 89.13616408 286.50707922 120.21862871 265.5 139.125 C265.01273437 139.60453125 264.52546875 140.0840625 264.0234375 140.578125 C244.12518071 159.25042284 207.85277105 156.80770644 182.71630859 156.22998047 C152.22690142 155.23480474 122.0779481 147.93773769 100.5 125.125 C91.30204412 113.37112219 87.49137017 99.32283193 83.875 85.125 C83.4903748 83.64302353 83.10496129 82.16125142 82.71875 80.6796875 C82.34092679 79.22401517 81.96331969 77.76828673 81.5859375 76.3125 C81.40311218 75.60891357 81.22028687 74.90532715 81.03192139 74.18041992 C80.20188884 70.95995025 79.41618256 67.7447001 78.70019531 64.49609375 C78.46139648 63.42488281 78.22259766 62.35367188 77.9765625 61.25 C77.68773193 59.86167969 77.68773193 59.86167969 77.39306641 58.4453125 C76.29148069 55.58323742 75.11129384 54.67315463 72.5 53.125 C68.23543146 51.70347715 64.15504315 51.90054707 59.6875 51.875 C58.79740234 51.854375 57.90730469 51.83375 56.99023438 51.8125 C51.81292122 51.78179688 47.78795387 51.89425987 43.5 55.125 C40.09404839 60.98950059 39.10487563 67.73937251 37.6875 74.3125 C32.15473128 98.9846272 26.6045085 121.89084569 5.09765625 137.48046875 C-29.81079135 159.58040325 -79.60376169 161.20713149 -119.1394043 152.91015625 C-133.73674002 149.43536934 -146.81255825 142.51383094 -155.25 129.8125 C-168.26694378 107.86707516 -170.6941362 82.29941689 -171.03393555 57.17871094 C-171.01122799 53.04582118 -171.01122799 53.04582118 -172.80664062 49.48022461 C-174.65797478 47.86829532 -174.65797478 47.86829532 -178 46.6875 C-181.63721687 45.06374247 -182.62557796 44.50526613 -184.5 41.125 C-184.88818359 37.796875 -184.88818359 37.796875 -184.8984375 33.875 C-184.90130768 33.17987305 -184.90417786 32.48474609 -184.90713501 31.76855469 C-184.90917134 30.30272606 -184.90367156 28.83686999 -184.89111328 27.37109375 C-184.8750516 25.13219223 -184.89097458 22.89509563 -184.91015625 20.65625 C-184.90817374 19.2291627 -184.9043299 17.80207651 -184.8984375 16.375 C-184.89505371 15.08078125 -184.89166992 13.7865625 -184.88818359 12.453125 C-184.47490739 8.90986639 -184.08353075 7.53712513 -181.5 5.125 C-179.30883789 4.10766602 -179.30883789 4.10766602 -176.72265625 3.37890625 C-175.74820557 3.10135498 -174.77375488 2.82380371 -173.76977539 2.5378418 C-172.18217407 2.11692261 -172.18217407 2.11692261 -170.5625 1.6875 C-169.46091553 1.3881958 -168.35933105 1.0888916 -167.22436523 0.78051758 C-148.66151705 -4.09922489 -129.61807802 -7.2324878 -110.5 -8.875 C-109.36433594 -8.98585937 -108.22867188 -9.09671875 -107.05859375 -9.2109375 C-71.20538071 -12.22929673 -34.86857849 -8.5946334 0 0 Z" fill="url(#lensGradient)" transform="translate(196.5,182.875)" />
</svg>
